# xmcd
#
# Track frame offsets:
#  150
#  14369
#  30944
#  46265
#  60070
#  77130
#  91013
#
# Disc length: 1424 seconds
#
# Revision: 1
# Processed by: cddbd v1.5.1PL2 Copyright (c) Steve Scherf et al.
# Submitted via: Collectorz.com_Music_Collector 6.11
#
DISCID=3b058e07
DTITLE=Talie Marie - Desert Rose
DYEAR=2006
DGENRE=Blues Female Vocalist
TTITLE0=Desert Rose
TTITLE1=Honey Come Home
TTITLE2=Love From Far Away
TTITLE3=Honky Tonk Angel
TTITLE4=Dreams
TTITLE5=Lonely Hearts
TTITLE6=Eternally Happy
EXTD=
EXTT0=
EXTT1=
EXTT2=
EXTT3=
EXTT4=
EXTT5=
EXTT6=
PLAYORDER=
